<svg width="32" height="32" viewBox="0 0 32 32" fill="none" xmlns="http://www.w3.org/2000/svg">
<path fill-rule="evenodd" clip-rule="evenodd" d="M15.8749 7.59621C15.7215 7.52911 15.5423 7.56857 15.4312 7.69391C15.3201 7.81925 15.3024 8.00191 15.3875 8.14621C16.383 10.0322 16.3429 12.2967 15.2812 14.1462C14.2705 14.2496 13.3199 13.6494 12.9787 12.6925C12.9412 12.5894 12.8605 12.508 12.7579 12.4695C12.6552 12.4311 12.5409 12.4394 12.4449 12.4925C10.9186 13.5556 10.0764 15.353 10.2362 17.2062C10.4519 20.2767 13.0398 22.6373 16.1172 22.5705C19.1945 22.5037 21.6776 20.0332 21.7599 16.9562C22.1165 12.8702 19.7118 9.04568 15.8749 7.59621Z" stroke="black" stroke-width="2" stroke-linecap="round" stroke-linejoin="round"/>
<path d="M26.6475 9.73877C27.683 9.73877 28.5225 8.8993 28.5225 7.86377C28.5225 6.82824 27.683 5.98877 26.6475 5.98877C25.6119 5.98877 24.7725 6.82824 24.7725 7.86377C24.7725 8.8993 25.6119 9.73877 26.6475 9.73877Z" stroke="black" stroke-width="2" stroke-linecap="round" stroke-linejoin="round"/>
<path d="M28.4437 7.32625L26.83 1.9375L30.0625 2.9275" stroke="black" stroke-width="2" stroke-linecap="round" stroke-linejoin="round"/>
<path d="M3.8125 13.4513C4.84803 13.4513 5.6875 12.6118 5.6875 11.5763C5.6875 10.5408 4.84803 9.70129 3.8125 9.70129C2.77697 9.70129 1.9375 10.5408 1.9375 11.5763C1.9375 12.6118 2.77697 13.4513 3.8125 13.4513Z" stroke="black" stroke-width="2" stroke-linecap="round" stroke-linejoin="round"/>
<path d="M5.51128 10.7812L3.12378 5.6875" stroke="black" stroke-width="2" stroke-linecap="round" stroke-linejoin="round"/>
<path d="M8.5 24.4375L23.5 30.0625" stroke="black" stroke-width="2" stroke-linecap="round" stroke-linejoin="round"/>
<path d="M23.5 24.4375L8.5 30.0625" stroke="black" stroke-width="2" stroke-linecap="round" stroke-linejoin="round"/>
</svg>
