<svg width="30" height="30" viewBox="0 0 30 30" fill="none" xmlns="http://www.w3.org/2000/svg">
<g clip-path="url(#clip0_105_48)">
<path d="M15.0042 -0.00280762C6.70711 -0.00280762 -0.019043 6.72334 -0.019043 15.0204C-0.019043 23.3174 6.70711 30.0435 15.0042 30.0435C23.3012 30.0435 30.0273 23.3174 30.0273 15.0204C30.0273 6.72334 23.3012 -0.00280762 15.0042 -0.00280762ZM24.3151 11.0474L25.2851 7.91122C26.5922 9.80584 27.3473 12.0263 27.4663 14.3249L24.7888 12.4387C24.3462 12.1266 24.1549 11.5649 24.3151 11.0474ZM18.2501 2.94118H18.2401L15.74 4.76116C15.3018 5.07973 14.7083 5.07973 14.27 4.76116L11.77 2.94118C13.89 2.3529 16.1301 2.3529 18.2501 2.94118ZM4.71504 7.91245L5.68506 11.0474C5.84525 11.5649 5.65395 12.1266 5.21133 12.4387L2.53383 14.3249C2.65283 12.0267 3.40799 9.80661 4.71504 7.91245ZM5.00883 22.48L8.4426 22.4912C8.98465 22.4923 9.46424 22.8427 9.63012 23.3587L10.7101 26.725C8.44002 25.8894 6.46002 24.4152 5.00883 22.48ZM19.2913 26.725L20.3701 23.3587C20.5358 22.8431 21.0147 22.4929 21.5563 22.4912L24.9913 22.48C23.5409 24.4154 21.5612 25.8897 19.2913 26.725ZM26.4613 19.975L21.5488 19.9912C19.9223 19.9933 18.4836 21.0464 17.99 22.5962L16.4463 27.4087C15.4859 27.5304 14.5141 27.5304 13.5538 27.4087L12.01 22.5949C11.5158 21.0452 10.0767 19.9926 8.45004 19.9912L3.53877 19.9762C3.16078 19.1041 2.88439 18.1914 2.715 17.2562L6.65127 14.4824C7.98182 13.5486 8.5568 11.8621 8.07375 10.3099L6.65502 5.71993C7.37197 5.06842 8.16229 4.50252 9.01002 4.03366L12.795 6.78364C14.1088 7.74211 15.8912 7.74211 17.205 6.78364L20.99 4.03366C21.8375 4.50282 22.6278 5.06866 23.345 5.71993L21.9262 10.3099C21.4433 11.8621 22.0182 13.5485 23.3487 14.4824L27.285 17.2562C27.1158 18.1911 26.8393 19.1033 26.4613 19.975Z" fill="black"/>
<path d="M19.2326 11.53L16.8363 9.78998C15.7424 8.99123 14.2577 8.99123 13.1638 9.78998L10.7676 11.53C9.66737 12.3249 9.20829 13.7406 9.63256 15.03L10.5476 17.8462C10.9657 19.1328 12.166 20.0028 13.5188 19.9999H16.4813C17.8355 20.0001 19.0356 19.1279 19.4538 17.8399L20.3676 15.0237C20.7892 13.7362 20.3304 12.3238 19.2326 11.53ZM17.99 14.2512L17.0763 17.0674C16.9928 17.3254 16.7524 17.5001 16.4812 17.4999H13.5187C13.248 17.4996 13.0084 17.325 12.925 17.0674L12.0101 14.25C11.9259 13.992 12.0178 13.7091 12.2376 13.5499L14.6326 11.8125C14.8517 11.6532 15.1485 11.6532 15.3676 11.8125L17.7639 13.5525C17.9825 13.7118 18.0739 13.9938 17.99 14.2512Z" fill="black"/>
</g>
<defs>
<clipPath id="clip0_105_48">
<rect width="30" height="30" fill="white"/>
</clipPath>
</defs>
</svg>
