<svg width="32" height="32" viewBox="0 0 32 32" fill="none" xmlns="http://www.w3.org/2000/svg">
<g clip-path="url(#clip0_105_31)">
<path d="M30.6666 16C30.6666 16.3536 30.5262 16.6928 30.2761 16.9428C30.0261 17.1929 29.6869 17.3333 29.3333 17.3333H25.5066C24.8177 17.3311 24.1408 17.1519 23.541 16.8129C22.9412 16.4739 22.4386 15.9864 22.0813 15.3973L20.2573 12.3693L18.2746 17.2C18.2083 17.3621 18.1106 17.5094 17.9873 17.6338C17.864 17.7581 17.7174 17.8569 17.5559 17.9246C17.3944 17.9922 17.2211 18.0274 17.046 18.0281C16.8709 18.0288 16.6973 17.995 16.5353 17.9287C16.3732 17.8623 16.2258 17.7647 16.1015 17.6414C15.9772 17.518 15.8784 17.3714 15.8107 17.2099C15.7431 17.0484 15.7079 16.8751 15.7072 16.7C15.7065 16.5249 15.7403 16.3514 15.8066 16.1893L18.0733 10.6667H15.488L12.736 17.376C12.6168 17.6659 12.6036 17.9886 12.6987 18.2873C12.7938 18.586 12.9911 18.8416 13.256 19.0093L19.3786 22.876C19.5684 22.9959 19.7249 23.1618 19.8335 23.3583C19.9422 23.5548 19.9994 23.7755 20 24V30.6667C20 31.0203 19.8595 31.3594 19.6094 31.6095C19.3594 31.8595 19.0202 32 18.6666 32C18.313 32 17.9739 31.8595 17.7238 31.6095C17.4738 31.3594 17.3333 31.0203 17.3333 30.6667V24.7347L11.832 21.268C11.0356 20.7656 10.4419 19.9983 10.1556 19.1013C9.86927 18.2042 9.90858 17.2349 10.2666 16.364L12.6053 10.6667H9.64796C9.40036 10.6658 9.15745 10.7342 8.94677 10.8643C8.73609 10.9944 8.56606 11.1809 8.45596 11.4027L6.52663 15.2627C6.44836 15.4194 6.33999 15.5591 6.20771 15.674C6.07543 15.7888 5.92183 15.8765 5.75567 15.9319C5.58952 15.9874 5.41406 16.0096 5.23933 15.9972C5.0646 15.9849 4.894 15.9383 4.73729 15.86C4.58058 15.7817 4.44082 15.6734 4.32599 15.5411C4.21116 15.4088 4.12351 15.2552 4.06804 15.089C4.01258 14.9229 3.99038 14.7474 4.00272 14.5727C4.01506 14.398 4.06169 14.2274 4.13996 14.0707L6.07063 10.204C6.40183 9.5394 6.91242 8.98075 7.54462 8.59125C8.17682 8.20175 8.90541 7.99695 9.64796 8H18.4786C19.1682 8.00205 19.8456 8.18131 20.4459 8.52056C21.0462 8.85982 21.5492 9.34769 21.9066 9.93733L24.3653 14.0213C24.4844 14.2176 24.6519 14.38 24.8517 14.493C25.0516 14.6059 25.2771 14.6658 25.5066 14.6667H29.3333C29.6869 14.6667 30.0261 14.8071 30.2761 15.0572C30.5262 15.3072 30.6666 15.6464 30.6666 16ZM10.5 22.4187C10.3374 22.3536 10.1636 22.3212 9.98849 22.3233C9.81339 22.3254 9.64043 22.362 9.47947 22.431C9.31851 22.5 9.17271 22.5999 9.0504 22.7253C8.92809 22.8506 8.83167 22.9988 8.76663 23.1613C8.66862 23.4096 8.49794 23.6225 8.27692 23.7721C8.05591 23.9218 7.79486 24.0012 7.52796 24H3.99996C3.64634 24 3.3072 24.1405 3.05715 24.3905C2.8071 24.6406 2.66663 24.9797 2.66663 25.3333C2.66663 25.687 2.8071 26.0261 3.05715 26.2761C3.3072 26.5262 3.64634 26.6667 3.99996 26.6667H7.52796C8.32809 26.6692 9.11041 26.4306 9.773 25.9821C10.4356 25.5335 10.9477 24.8958 11.2426 24.152C11.3077 23.9894 11.3401 23.8156 11.338 23.6405C11.3359 23.4654 11.2993 23.2925 11.2303 23.1315C11.1613 22.9706 11.0614 22.8248 10.936 22.7024C10.8107 22.5801 10.6625 22.4837 10.5 22.4187V22.4187ZM20 6.66667C20.6592 6.66667 21.3037 6.47117 21.8519 6.1049C22.4 5.73863 22.8273 5.21803 23.0796 4.60895C23.3318 3.99986 23.3979 3.32964 23.2692 2.68303C23.1406 2.03643 22.8232 1.44249 22.357 0.976312C21.8908 0.510137 21.2969 0.192668 20.6503 0.0640506C20.0037 -0.0645668 19.3334 0.00144428 18.7243 0.253736C18.1153 0.506029 17.5947 0.93327 17.2284 1.48143C16.8621 2.0296 16.6666 2.67406 16.6666 3.33334C16.6666 4.21739 17.0178 5.06524 17.6429 5.69036C18.2681 6.31548 19.1159 6.66667 20 6.66667Z" fill="black"/>
</g>
<defs>
<clipPath id="clip0_105_31">
<rect width="32" height="32" fill="white"/>
</clipPath>
</defs>
</svg>
