<svg width="30" height="30" viewBox="0 0 30 30" fill="none" xmlns="http://www.w3.org/2000/svg">
<g clip-path="url(#clip0_105_35)">
<path d="M30 3.75004V21.3C30 24.075 28.1363 26.5463 25.4675 27.31L17.06 29.7113C15.7125 30.0963 14.2875 30.0963 12.94 29.7113L4.5325 27.31C1.86375 26.5475 0 24.0763 0 21.3V5.00004C0.0075 3.36504 2.4925 3.36629 2.5 5.00004V21.3C2.5 22.9663 3.61875 24.4488 5.22 24.9063L13.6275 27.3075C14.5263 27.5638 15.475 27.5638 16.375 27.3075L24.7813 24.9063C26.3825 24.4488 27.5013 22.9663 27.5013 21.3V3.75004C27.5088 2.11504 29.9938 2.11629 30.0013 3.75004H30ZM5 18.6713V5.00004C5 3.41629 5.725 1.96129 6.98875 1.00879C8.2525 0.0550352 9.85 -0.242465 11.3738 0.192535L13.5313 0.808785C14.0888 0.967535 14.5875 1.25129 15.0013 1.62254C15.415 1.25129 15.9138 0.967535 16.4713 0.808785L18.6275 0.192535C21.7038 -0.779965 25.0913 1.77754 25.0013 5.00004V18.6713C25.0013 20.8913 23.51 22.8688 21.375 23.4788L17.0613 24.7113C15.7125 25.0963 14.2875 25.0963 12.9413 24.7113L8.6275 23.4788C6.4925 22.8688 5.00125 20.8913 5.00125 18.6713H5ZM16.25 22.3413C16.2913 22.33 20.6863 21.075 20.6863 21.075C21.7538 20.77 22.5 19.7813 22.5 18.6713V5.00004C22.5 4.20879 22.1375 3.48129 21.5063 3.00379C20.8713 2.52379 20.0675 2.38004 19.3138 2.59504L17.1575 3.21129C16.6238 3.36379 16.25 3.85754 16.25 4.41254V22.34V22.3413ZM7.5 18.6713C7.5 19.7813 8.24625 20.77 9.31375 21.075C9.31375 21.075 13.7088 22.33 13.75 22.3413V4.41379C13.75 3.85879 13.3775 3.36504 12.8438 3.21254L10.6863 2.59629C9.9325 2.38004 9.1275 2.52504 8.49375 3.00504C7.8625 3.48129 7.5 4.20879 7.5 5.00129V18.6713V18.6713Z" fill="black"/>
</g>
<defs>
<clipPath id="clip0_105_35">
<rect width="30" height="30" fill="white"/>
</clipPath>
</defs>
</svg>
