<svg width="30" height="30" viewBox="0 0 30 30" fill="none" xmlns="http://www.w3.org/2000/svg">
<g clip-path="url(#clip0_105_33)">
<path d="M12.0812 23.9375L11.3312 28.9063C11.2864 29.2018 11.1372 29.4714 10.9106 29.6663C10.684 29.8613 10.3951 29.9686 10.0962 29.9688C10.033 29.9687 9.96992 29.9637 9.90749 29.9538C9.58005 29.9038 9.28582 29.726 9.08941 29.4592C8.89301 29.1925 8.81049 28.8588 8.85999 28.5313L9.60999 23.5625C9.63177 23.3978 9.68617 23.239 9.77002 23.0956C9.85386 22.9521 9.96548 22.8268 10.0983 22.727C10.2312 22.6272 10.3826 22.5548 10.5437 22.5142C10.7048 22.4736 10.8725 22.4655 11.0367 22.4905C11.201 22.5154 11.3587 22.5728 11.5005 22.6594C11.6424 22.746 11.7655 22.86 11.8628 22.9947C11.96 23.1295 12.0294 23.2822 12.0669 23.4441C12.1045 23.606 12.1093 23.7737 12.0812 23.9375V23.9375ZM26.31 10V28.75C26.31 29.0815 26.1783 29.3995 25.9439 29.6339C25.7095 29.8683 25.3915 30 25.06 30C24.7285 30 24.4105 29.8683 24.1761 29.6339C23.9417 29.3995 23.81 29.0815 23.81 28.75V15H20.06C19.8277 15.0001 19.6 14.9355 19.4024 14.8134C19.2048 14.6913 19.0451 14.5165 18.9412 14.3088L18.145 12.715L17.5712 15.865C17.5189 16.1528 17.3672 16.4131 17.1427 16.6006C16.9182 16.7882 16.635 16.891 16.3425 16.8913C16.2671 16.8907 16.1918 16.884 16.1175 16.8713C15.7921 16.8105 15.5042 16.6232 15.3167 16.3505C15.1292 16.0777 15.0576 15.7418 15.1175 15.4163L16.1025 10.0113C16.0737 10.0113 16.0475 10 16.02 10H13.6075L12.375 16.7C12.324 16.9467 12.3487 17.2031 12.446 17.4356C12.5432 17.668 12.7085 17.8656 12.92 18.0025L18.235 21.4513C18.4097 21.5648 18.5532 21.7202 18.6526 21.9034C18.7519 22.0866 18.8039 22.2916 18.8037 22.5V28.75C18.8037 29.0815 18.672 29.3995 18.4376 29.6339C18.2032 29.8683 17.8853 30 17.5537 30C17.2222 30 16.9043 29.8683 16.6699 29.6339C16.4354 29.3995 16.3037 29.0815 16.3037 28.75V23.1788L11.5537 20.1C11.1971 19.8658 10.883 19.5724 10.625 19.2325C9.90972 19.7432 9.05003 20.0121 8.17124 20C6.08249 20 3.83374 18.435 3.83374 15C3.83374 10.795 7.62999 7.5 12.4762 7.5H16.015C16.7129 7.49654 17.3977 7.68893 17.9916 8.0553C18.5856 8.42167 19.0649 8.94732 19.375 9.5725L20.8325 12.5H23.81V10C23.81 9.66848 23.9417 9.35054 24.1761 9.11612C24.4105 8.8817 24.7285 8.75 25.06 8.75C25.3915 8.75 25.7095 8.8817 25.9439 9.11612C26.1783 9.35054 26.31 9.66848 26.31 10V10ZM9.97124 15.9913L11.035 10.1463C8.53999 10.635 6.33374 12.375 6.33374 15C6.33374 17.375 7.86499 17.5 8.17124 17.5C8.59883 17.4932 9.01107 17.3395 9.3388 17.0648C9.66654 16.7901 9.88984 16.4111 9.97124 15.9913V15.9913ZM16.31 6.25C16.9281 6.25 17.5322 6.06672 18.0461 5.72334C18.5601 5.37996 18.9606 4.89191 19.1971 4.32089C19.4336 3.74987 19.4955 3.12154 19.3749 2.51534C19.2544 1.90915 18.9567 1.35233 18.5197 0.915293C18.0827 0.478254 17.5258 0.180626 16.9196 0.0600474C16.3135 -0.0605314 15.6851 0.00135401 15.1141 0.237878C14.5431 0.474402 14.055 0.874941 13.7116 1.38884C13.3683 1.90275 13.185 2.50694 13.185 3.125C13.185 3.9538 13.5142 4.74866 14.1003 5.33471C14.6863 5.92076 15.4812 6.25 16.31 6.25V6.25Z" fill="black"/>
</g>
<defs>
<clipPath id="clip0_105_33">
<rect width="30" height="30" fill="white"/>
</clipPath>
</defs>
</svg>
